<svg width="119" height="84" viewBox="0 0 119 84" fill="none" xmlns="http://www.w3.org/2000/svg">
<g filter="url(#filter0_i_232_66)">
<path fill-rule="evenodd" clip-rule="evenodd" d="M19.5217 0H85.9565L95 9.04348V75.4783C95 77.913 92.913 80 90.4783 80H19.5217C17.087 80 15 77.913 15 75.4783V4.52174C15 2.08696 17.087 0 19.5217 0ZM34.1304 4.34783H77.6087C79 4.34783 80.2174 5.56522 80.2174 6.95652V26.087C80.2174 27.4783 79 28.6957 77.6087 28.6957H34.1304C32.7391 28.6957 31.5217 27.4783 31.5217 26.087V6.95652C31.5217 5.56522 32.7391 4.34783 34.1304 4.34783ZM28.913 40H82.8261C84.7391 40 86.3044 41.5652 86.3044 43.4783V71.3044C86.3044 73.2174 84.7391 74.7826 82.8261 74.7826H28.913C27 74.7826 25.4348 73.2174 25.4348 71.3044V43.4783C25.4348 41.5652 27 40 28.913 40ZM68.7391 8.69565H73.4348C74.3043 8.69565 75 9.3913 75 10.2609V22.7826C75 23.6522 74.3043 24.3478 73.4348 24.3478H68.7391C67.8696 24.3478 67.1739 23.6522 67.1739 22.7826V10.2609C67.1739 9.3913 67.8696 8.69565 68.7391 8.69565Z" fill="#EB8AB8"/>
</g>
<g filter="url(#filter1_d_232_66)">
<path d="M5.672 46.776H17.512V63.992H24.104V68.024H14.888C14.2907 68.024 13.7147 67.8427 13.16 67.48C12.5413 67.0533 12.232 66.5627 12.232 66.008V50.84H10.952V63H5.672V46.776ZM25.4195 50.84H24.1395V52.856H25.4195V50.84ZM30.6995 54.872C30.6995 56.2373 29.8248 56.92 28.0755 56.92H24.1395V63H18.8595V46.776H28.0755C29.8248 46.776 30.6995 47.4587 30.6995 48.824V54.872ZM38.607 50.84H37.327V58.968H38.607V50.84ZM43.887 60.984C43.887 62.328 43.0123 63 41.263 63H34.671C32.9217 63 32.047 62.328 32.047 60.984V48.824C32.047 47.4587 32.9217 46.776 34.671 46.776H41.263C43.0123 46.776 43.887 47.4587 43.887 48.824V60.984ZM60.1068 53.88L57.4508 63H50.8908V46.776H56.1708V54.904L58.8268 46.776H65.3868V63.992L60.1068 53.88ZM65.3868 46.776V63.992H71.9788V68.024H62.7628C62.1654 68.024 61.5894 67.8427 61.0348 67.48C60.4161 67.0533 60.1068 66.5627 60.1068 66.008V53.88L65.3868 46.776ZM72.0145 63H66.7345V46.776H76.9745V50.84H72.0145V63ZM84.8883 50.84H83.6083V52.856H84.8883V50.84ZM90.1683 54.872C90.1683 56.2373 89.2936 56.92 87.5443 56.92H83.6083V63H78.3283V46.776H87.5443C89.2936 46.776 90.1683 47.4587 90.1683 48.824V54.872ZM96.2518 63H91.5158L95.0677 54.872L91.5158 46.776H96.2518L97.4358 49.496L98.6198 46.776H103.356L96.2518 63Z" fill="white"/>
</g>
<defs>
<filter id="filter0_i_232_66" x="15" y="0" width="80" height="84" filterUnits="userSpaceOnUse" color-interpolation-filters="sRGB">
<feFlood flood-opacity="0" result="BackgroundImageFix"/>
<feBlend mode="normal" in="SourceGraphic" in2="BackgroundImageFix" result="shape"/>
<feColorMatrix in="SourceAlpha" type="matrix" values="0 0 0 0 0 0 0 0 0 0 0 0 0 0 0 0 0 0 127 0" result="hardAlpha"/>
<feOffset dy="4"/>
<feGaussianBlur stdDeviation="2"/>
<feComposite in2="hardAlpha" operator="arithmetic" k2="-1" k3="1"/>
<feColorMatrix type="matrix" values="0 0 0 0 0 0 0 0 0 0 0 0 0 0 0 0 0 0 0.25 0"/>
<feBlend mode="normal" in2="shape" result="effect1_innerShadow_232_66"/>
</filter>
<filter id="filter1_d_232_66" x="0.672001" y="41.776" width="117.684" height="41.248" filterUnits="userSpaceOnUse" color-interpolation-filters="sRGB">
<feFlood flood-opacity="0" result="BackgroundImageFix"/>
<feColorMatrix in="SourceAlpha" type="matrix" values="0 0 0 0 0 0 0 0 0 0 0 0 0 0 0 0 0 0 127 0" result="hardAlpha"/>
<feOffset dx="5" dy="5"/>
<feGaussianBlur stdDeviation="5"/>
<feColorMatrix type="matrix" values="0 0 0 0 0 0 0 0 0 0 0 0 0 0 0 0 0 0 0.3 0"/>
<feBlend mode="normal" in2="BackgroundImageFix" result="effect1_dropShadow_232_66"/>
<feBlend mode="normal" in="SourceGraphic" in2="effect1_dropShadow_232_66" result="shape"/>
</filter>
</defs>
</svg>
