<svg version="1.1" xmlns="http://www.w3.org/2000/svg" xmlns:xlink="http://www.w3.org/1999/xlink">
    <symbol id="example-icon" viewBox="0 0 24 24">
        <g>
            <path d="M7.82711 3.00035C8.03495 3.00654 8.23221 3.0934 8.37711 3.24254L16.3771 11.2425C16.5271 11.3926 16.6113 11.596 16.6113 11.8082C16.6113 12.0203 16.5271 12.2238 16.3771 12.3738L8.37711 20.3738C8.30339 20.4506 8.2151 20.5119 8.11739 20.5541C8.01969 20.5963 7.91454 20.6186 7.80811 20.6197C7.70168 20.6208 7.5961 20.6006 7.49756 20.5604C7.39901 20.5202 7.30949 20.4607 7.23423 20.3854C7.15896 20.3102 7.09947 20.2206 7.05924 20.1221C7.01901 20.0235 6.99885 19.918 6.99993 19.8115C7.00101 19.7051 7.02332 19.6 7.06555 19.5023C7.10778 19.4045 7.16908 19.3163 7.24586 19.2425L14.6802 11.8082L7.24586 4.37379C7.13026 4.26142 7.0513 4.11674 7.01933 3.95873C6.98736 3.80071 7.00388 3.63672 7.06671 3.48826C7.12954 3.33979 7.23576 3.21376 7.37145 3.1267C7.50714 3.03964 7.66596 2.9956 7.82711 3.00035Z"/>
        </g>
    </symbol>
</svg>