<svg version="1.1" xmlns="http://www.w3.org/2000/svg" xmlns:xlink="http://www.w3.org/1999/xlink">
    <symbol id="headphones-icon" viewBox="0 0 36 32">
        <g>
            <path d="M31.0274 17.4208H30.7892V16.2106C31.3545 15.8827 31.7374 15.2792 31.7374 14.5791C31.7374 7.0053 25.5753 0.842407 18 0.842407C10.4254 0.842407 4.26255 7.0053 4.26255 14.5799C4.26255 15.2799 4.64553 15.8835 5.21004 16.2121V17.4223H4.9726C2.23123 17.4223 0 19.9714 0 23.1042V25.0015C0 28.1358 2.23123 30.6849 4.97336 30.6849H7.18698L7.38306 30.881C7.56766 31.0656 7.81047 31.1582 8.05251 31.1582C8.29532 31.1582 8.53813 31.0656 8.72272 30.881C8.94102 30.6627 9.01532 30.3655 8.97549 30.0813C9.13941 29.85 9.23745 29.5689 9.23745 29.264V18.8416C9.23745 18.0565 8.60094 17.4208 7.8166 17.4208H7.10579V16.2106C7.66953 15.8827 8.05251 15.2792 8.05251 14.5791C8.05251 9.09407 12.515 4.6316 18 4.6316C23.485 4.6316 27.9467 9.09407 27.9467 14.5791C27.9467 15.2792 28.3297 15.8827 28.8934 16.2106V17.4208H28.1826C27.3991 17.4208 26.7618 18.0565 26.7618 18.8416V29.2625C26.7618 29.5666 26.8606 29.8492 27.0237 30.079C26.9847 30.3632 27.059 30.6596 27.2765 30.8787C27.4619 31.0633 27.7047 31.1559 27.9467 31.1559C28.1888 31.1559 28.4323 31.0633 28.6169 30.8787L28.813 30.6826H31.0266C33.7688 30.6826 36 28.1335 36 24.9992V23.1027C36.0008 19.9714 33.7695 17.4208 31.0274 17.4208Z" />
        </g>
    </symbol>

    <symbol id="close-icon" viewBox="0 0 24 24">
        <g>
            <path d="M13.3393 11.9995L20.7216 4.61717C21.0915 4.2472 21.0915 3.6474 20.7216 3.27747C20.3516 2.90751 19.7518 2.90751 19.3819 3.27747L11.9995 10.6598L4.61717 3.27747C4.2472 2.90751 3.6474 2.90751 3.27747 3.27747C2.90754 3.64744 2.90751 4.24724 3.27747 4.61717L10.6598 11.9995L3.27747 19.3818C2.90751 19.7518 2.90751 20.3516 3.27747 20.7215C3.64744 21.0915 4.24724 21.0915 4.61717 20.7215L11.9995 13.3392L19.3818 20.7215C19.7517 21.0915 20.3516 21.0915 20.7215 20.7215C21.0914 20.3516 21.0914 19.7518 20.7215 19.3818L13.3393 11.9995Z"/>
        </g>
    </symbol>

    <symbol id="play-icon" viewBox="0 0 34 38">
        <g>
            <path d="M32 15.5359C34.6667 17.0755 34.6667 20.9245 32 22.4641L6.5 37.1865C3.83333 38.7261 0.5 36.8016 0.5 33.7224V4.27757C0.5 1.19837 3.83333 -0.726134 6.5 0.813467L32 15.5359Z" />
        </g>
    </symbol>

    <symbol id="home-icon" viewBox="0 0 24 24">
        <g>
            <path d="M12 3C11.8738 3.00002 11.7488 3.02488 11.6323 3.07316C11.5158 3.12144 11.4101 3.19216 11.3214 3.28125L1.69389 11.6188C1.63376 11.6629 1.58489 11.7203 1.55122 11.7865C1.51754 11.8527 1.5 11.9258 1.5 12C1.5 12.1256 1.55028 12.2461 1.63979 12.3349C1.7293 12.4238 1.85069 12.4737 1.97727 12.4737H4.36364V20.0526C4.36364 20.5756 4.79127 21 5.31818 21H9.13636C9.66327 21 10.0909 20.5756 10.0909 20.0526V14.3684H13.9091V20.0526C13.9091 20.5756 14.3367 21 14.8636 21H18.6818C19.2087 21 19.6364 20.5756 19.6364 20.0526V12.4737H22.0227C22.1493 12.4737 22.2707 12.4238 22.3602 12.3349C22.4497 12.2461 22.5 12.1256 22.5 12C22.5 11.9258 22.4825 11.8527 22.4488 11.7865C22.4151 11.7203 22.3662 11.6629 22.3061 11.6188L12.6842 3.2868C12.6824 3.28494 12.6805 3.28309 12.6786 3.28125C12.5899 3.19216 12.4842 3.12144 12.3677 3.07316C12.2512 3.02488 12.1262 3.00002 12 3Z"/>
        </g>
    </symbol>

    <symbol id="burger-icon" viewBox="0 0 25 24">
        <g>
            <path d="M7.57647 5.79608H15.7843C16.2353 5.79608 16.5961 5.43529 16.5961 4.98431C16.5961 4.53333 16.2353 4.17255 15.7843 4.17255H7.57647C7.03529 4.17255 6.76471 4.53333 6.76471 4.98431C6.76471 5.43529 7.03529 5.79608 7.57647 5.79608Z" />
            <path d="M19.4824 11.3882H7.57647C7.12549 11.3882 6.76471 11.749 6.76471 12.2C6.76471 12.651 7.12549 13.0118 7.57647 13.0118H19.4824C19.9333 13.0118 20.2941 12.651 20.2941 12.2C20.2941 11.749 19.9333 11.3882 19.4824 11.3882Z" />
            <path d="M23.1804 18.5137H7.57647C7.12549 18.5137 6.76471 18.8745 6.76471 19.3255C6.76471 19.7765 7.12549 20.1373 7.57647 20.1373H23.2706C23.7216 20.1373 24.0824 19.7765 24.0824 19.3255C24.0824 18.8745 23.7216 18.5137 23.1804 18.5137Z" />
            <path d="M2.70588 4.98431C2.70588 4.53333 2.43529 4.26274 2.07451 4.26274H1.89412C1.53333 4.26274 1.17255 4.53333 1.17255 4.98431C1.17255 5.43529 1.44314 5.70588 1.80392 5.70588H1.89412C2.3451 5.70588 2.70588 5.43529 2.70588 4.98431ZM3.87843 4.98431C3.87843 6.06667 3.06667 6.96863 1.98431 6.96863H1.89412C0.811765 6.96863 0 6.06667 0 4.98431C0 3.90196 0.811765 3 1.89412 3H1.98431C3.06667 3 3.87843 3.90196 3.87843 4.98431Z" />
            <path d="M3.87843 12.2C3.87843 13.2824 3.06667 14.1843 1.98431 14.1843H1.89412C0.811765 14.1843 0 13.2824 0 12.2C0 11.1176 0.811765 10.2157 1.89412 10.2157H1.98431C3.06667 10.2157 3.87843 11.1176 3.87843 12.2ZM1.89412 11.4784C1.53333 11.4784 1.17255 11.749 1.17255 12.2C1.17255 12.651 1.44314 12.9216 1.80392 12.9216H1.89412C2.2549 12.9216 2.52549 12.651 2.52549 12.2C2.52549 11.749 2.2549 11.4784 1.89412 11.4784Z" />
            <path d="M3.87843 19.4157C3.87843 20.498 3.06667 21.4 1.98431 21.4H1.89412C0.811765 21.4 0 20.498 0 19.4157C0 18.3333 0.811765 17.4314 1.89412 17.4314H1.98431C3.06667 17.4314 3.87843 18.3333 3.87843 19.4157ZM1.89412 18.6941C1.53333 18.6941 1.17255 18.9647 1.17255 19.4157C1.17255 19.8667 1.44314 20.1373 1.80392 20.1373H1.89412C2.2549 20.1373 2.52549 19.8667 2.52549 19.4157C2.52549 18.9647 2.2549 18.6941 1.89412 18.6941Z" />
        </g>
    </symbol>
</svg>